<svg xmlns="http://www.w3.org/2000/svg" viewBox="0 0 48 48" fill="none">
  <rect width="48" height="48" rx="8" fill="#6d28d9"/>
  <path d="M14 16c0-1.1.9-2 2-2h16c1.1 0 2 .9 2 2v20c0 1.1-.9 2-2 2H16c-1.1 0-2-.9-2-2V16z" stroke="#fff" stroke-width="2" fill="none"/>
  <circle cx="20" cy="22" r="2" fill="#fff"/>
  <circle cx="28" cy="22" r="2" fill="#fff"/>
  <path d="M18 30c1.5 2 4 3 6 3s4.5-1 6-3" stroke="#fff" stroke-width="2" stroke-linecap="round" fill="none"/>
  <path d="M8 24h6v10H8z" fill="#a78bfa" opacity="0.8"/>
  <path d="M34 18h6v16h-6z" fill="#a78bfa" opacity="0.8"/>
</svg>
